<!DOCTYPE svg PUBLIC "-//W3C//DTD SVG 20010904//EN" "http://www.w3.org/TR/2001/REC-SVG-20010904/DTD/svg10.dtd">
<svg version="1.0" xmlns="http://www.w3.org/2000/svg" width="32px" height="32px" viewBox="0 0 320 320" preserveAspectRatio="xMidYMid meet">
<g id="layer101" fill="#000000" stroke="none">
 <path d="M88 274 c-78 -42 -77 -188 2 -229 51 -26 160 -13 160 20 0 21 -12 25 -34 10 -11 -8 -38 -15 -59 -15 -88 0 -131 108 -68 171 62 61 171 20 171 -64 0 -19 7 -40 15 -47 13 -11 15 -6 15 34 0 88 -47 136 -132 136 -24 -1 -55 -7 -70 -16z"/>
 <path d="M125 190 c-22 -23 -26 -33 -17 -42 9 -9 16 -7 32 7 20 18 21 18 75 -35 43 -43 57 -52 67 -42 10 10 -2 26 -52 77 -35 36 -67 65 -70 65 -4 0 -19 -14 -35 -30z"/>
 </g>

</svg>