<?xml version="1.0" encoding="utf-8"?>
<!-- Generator: Adobe Illustrator 22.1.0, SVG Export Plug-In . SVG Version: 6.00 Build 0)  -->
<svg version="1.1" id="Слой_1" xmlns="http://www.w3.org/2000/svg" xmlns:xlink="http://www.w3.org/1999/xlink" x="0px" y="0px"
	 viewBox="0 0 50 50" style="enable-background:new 0 0 50 50;" xml:space="preserve">
<style type="text/css">
	.st0{fill:#003399;stroke:#FFCC66;stroke-miterlimit:10;}
</style>
<g id="layer101">
	<path class="st0" d="M8.6,48.4C7.7,47.6,7,46.5,7,46s-1-1-2.2-1.2c-2.1-0.3-2.4-1-3-8.3C1.4,32.1,0.8,26,0.4,23
		c-0.5-4.7-0.2-5.9,1.6-8.2c2.7-3.4,7.8-5,12.5-3.7c1.9,0.5,3.7,1.4,4,1.9c0.4,0.6,2.6,1,5,1c5.6,0,7.5,0.8,7.5,3.1
		c0,1.6,0.8,1.9,4.8,1.9c5.5,0,7.8,1.3,11.6,6.8c2.4,3.6,2.7,4.7,2.4,11.3c-0.3,6.4-0.6,7.4-2.2,7.7c-1.1,0.3-2.8,1.5-3.9,2.8
		c-2.5,3.2-7.1,3.2-10.1-0.1c-2-2.1-3.2-2.5-8.1-2.5s-6,0.4-7.7,2.5C15.5,50.4,11,50.9,8.6,48.4z M15.7,45.4
		c0.7-1.8-0.6-4.5-2.4-5.1c-0.6-0.2-1.8,0.3-2.7,1.2c-1.2,1.2-1.3,2.1-0.6,3.6C11.3,47.4,14.8,47.6,15.7,45.4z M41.4,44.8
		c0.8-1.4,0.7-2.1-0.5-3.3c-2.8-2.9-7.3,1.1-4.8,4.2C37.6,47.4,39.9,47,41.4,44.8z M8.4,39.5C9.8,38.1,11.9,37,13,37
		c1.2,0,3.2,1.1,4.6,2.5c1.8,1.8,3.6,2.5,6.4,2.5h4V29.5V17h-3c-2.8,0-3,0.2-3,4c0,2.1-0.5,5-1.1,6.3c-2.1,4.7-10.2,7.2-15,4.7
		C4.1,31,4,31.3,4,35.8C4,40,4.5,42,5.6,42C5.8,42,7,40.9,8.4,39.5z M34.4,39.5c1.4-1.4,3.5-2.5,4.6-2.5c1.2,0,3.1,1.1,4.4,2.5
		c3.1,3.4,3.6,3.2,3.6-1.5v-4h-5.9c-6.4,0-7.1-0.6-7.1-6c0-2.9,1.3-4.5,4.5-5.3c1.1-0.3,0-0.5-2.5-0.4l-4.5,0.2l-0.3,9.8
		c-0.1,5.3-0.1,9.7,0.2,9.7C31.7,42,33,40.9,34.4,39.5z M46,30.3c0-0.5-0.7-1.6-1.4-2.6c-2-2.7-7-1.9-7.4,1.1
		c-0.3,2,0.1,2.2,4.2,2.2C43.9,31,46,30.7,46,30.3z M16.5,27.5c1.5-1.4,2.5-3.6,2.5-5.3c0-3.3-3.4-8.2-5.7-8.2c-1.3,0-1.5,0.8-1,4.4
		C13,23.1,11.2,26,7.7,26c-2.1,0-2.2-1.4-0.2-3c1.5-1.2,2.2-9,0.8-9c-0.4,0-1.7,1-3,2.2C0.3,20.9,4.1,30,11,30
		C12.9,30,15,29.1,16.5,27.5z"/>
</g>
</svg>
