<?xml version="1.0" encoding="utf-8"?>
<!-- Generator: Adobe Illustrator 22.1.0, SVG Export Plug-In . SVG Version: 6.00 Build 0)  -->
<svg version="1.1" id="Capa_1" xmlns="http://www.w3.org/2000/svg" xmlns:xlink="http://www.w3.org/1999/xlink" x="0px" y="0px"
	 viewBox="0 0 512 512" style="enable-background:new 0 0 512 512;" xml:space="preserve">
<style type="text/css">
	.st0{fill:#6699CC;stroke:#FFCC66;stroke-miterlimit:10;}
</style>
<g>
	<g>
		<path class="st0" d="M452,274.7v-63.6h15c8.3,0,15-6.7,15-15v-59c0-24.8-20.2-45-45-45h-54.6c24.7-42.1-7-94.3-55.1-92
			c-21.5,1-40.4,12.9-50.7,31.8l-22.1,40.9l-22.1-40.9c-10.3-18.9-29.2-30.7-50.7-31.7c-48.2-2.2-79.8,49.9-55.1,92H75
			c-24.8,0-45,20.2-45,45v59c0,8.3,6.7,15,15,15h15v91h-45c-8.3,0-15,6.7-15,15v180c0,8.3,6.7,15,15,15h60c7.4,0,13.5-5.3,14.7-12.3
			c29.4,8.1,61.2,12.3,92.3,12.3H316c32.8,0,64.1-15.6,83.8-41.7c0.3-0.4,102.9-125.9,103.2-126.2c5.9-7.8,9-17.2,9-27
			C511.9,286.3,481.4,264.2,452,274.7z M60,377v105h-30V332h30V377z M437,122.1c8.3,0,15,6.7,15,15v44H301v-59
			C305.7,122.1,432.4,122.1,437,122.1z M422,211.1v87.9l-62.8,65.3c-5.5-18.6-22.8-32.2-43.1-32.2h-15v-121L422,211.1L422,211.1z
			 M302.9,46.1c5.2-9.6,14.8-15.6,25.7-16.1c23.7-1.1,40.1,24,28.6,45.7C351.7,86,341.6,92.1,330,92.1c-6.3,0-46.1,0-52,0
			L302.9,46.1z M241,122.1c11.2,0,19.1,0,30,0V332h-24.3c-1.9,0-3.8-0.1-5.7-0.4L241,122.1L241,122.1z M178.9,30c0.5,0,1,0,1.5,0
			c10.9,0.5,20.5,6.5,25.7,16.1l24.9,46c-23.3,0-37.4,0-52,0c-11.5,0-21.7-6.1-27.2-16.4C140.4,54.5,155.9,30,178.9,30z M60,181.1
			v-44c0-8.3,6.7-15,15-15c1.1,0,134.2,0,136,0v59L60,181.1L60,181.1z M211,211.1v103.7c-17.6-12.2-38.6-18.9-60.5-18.9
			s-42.9,6.6-60.5,18.9V211.1H211z M479.1,325.8L376.4,451.5c-0.1,0.2-0.3,0.3-0.4,0.5c-14.1,18.8-36.5,30-60,30H182.1
			c-34,0-62-4.9-92-13.4V377v-23.2l10.4-9.2c28.5-25.1,71.5-25.1,100.1,0c12.8,11.3,29.3,17.4,46.1,17.4H316c8.3,0,15,6.7,15,15
			s-6.7,15-15,15H209.4c-8.3,0-15,6.7-15,15s6.7,15,15,15H326c12.4,0,24.4-5.2,32.8-14.2c3.8-3.9,93.7-97.5,96.9-100.8
			c0,0,0-0.1,0.1-0.1c0,0,0.1-0.1,0.1-0.1c9.2-9.9,26-3.4,26,10.2C481.9,320.2,481,323.3,479.1,325.8z"/>
	</g>
</g>
</svg>
