<?xml version="1.0" encoding="utf-8"?>
<!-- Generator: Adobe Illustrator 22.1.0, SVG Export Plug-In . SVG Version: 6.00 Build 0)  -->
<svg version="1.1" id="Слой_1" xmlns="http://www.w3.org/2000/svg" xmlns:xlink="http://www.w3.org/1999/xlink" x="0px" y="0px"
	 viewBox="0 0 64 64" style="enable-background:new 0 0 64 64;" xml:space="preserve">
<style type="text/css">
	.st0{fill:#6699CC;stroke:#6699CC;stroke-miterlimit:10;}
</style>
<g id="layer101">
	<path class="st0" d="M27.1,59.5c-2.8-2-4.1-2.3-7.7-1.8c-4.3,0.6-4.3,0.5-5.9-3.5c-1.3-3.2-2.5-4.4-5.7-5.7c-4-1.6-4-1.6-3.5-5.8
		c0.5-3.5,0.1-4.9-2-7.9L-0.3,31l2.6-3.7c2.1-3.1,2.5-4.5,2-8c-0.5-4.2-0.5-4.2,3.5-5.8c3.2-1.3,4.4-2.5,5.7-5.7
		c1.6-4,1.6-4,5.8-3.5c3.5,0.5,4.9,0.1,8-2L31-0.3l3.8,2.6c3,2.1,4.4,2.5,7.9,2c4.2-0.5,4.2-0.5,5.8,3.5c1.3,3.2,2.5,4.4,5.7,5.7
		c4,1.6,4,1.6,3.5,5.8c-0.5,3.5-0.1,4.9,2,8l2.6,3.7l-2.6,3.8c-2.1,3-2.5,4.4-2,7.9c0.5,4.2,0.5,4.2-3.5,5.8
		c-3.2,1.3-4.4,2.5-5.7,5.7c-1.6,4-1.6,4.1-5.9,3.5c-3.6-0.5-4.9-0.2-7.7,1.8C33.1,60.9,31.3,62,31,62C30.7,62,28.9,60.9,27.1,59.5z
		 M34.4,55.9c2.1-1.7,3.5-2,6.5-1.5c3.7,0.6,3.9,0.4,5.3-3.3c1.2-3,2.4-4.1,5.2-5.1c3.5-1.1,3.6-1.3,3-5c-0.5-3-0.1-4.4,1.7-6.9
		l2.3-3.1l-2.3-3.1c-1.8-2.5-2.2-3.9-1.7-6.9c0.6-3.7,0.5-3.9-3-5c-2.8-1-4-2.1-5.2-5.1C44.8,7.2,44.6,7,41,7.6
		c-3,0.5-4.4,0.1-6.9-1.7L31,3.6l-3.1,2.3C25.4,7.7,24,8.1,21,7.6c-3.6-0.6-3.8-0.4-5.2,3.3c-1.2,3-2.4,4.1-5.3,5.1
		c-3.1,1-3.6,1.6-3.1,3.4C7.7,20.5,8,22.1,8,22.8c0,0.8,1.7,1.2,5.1,1.2h5l3-6.5c3.1-6.9,5.2-8.1,8.4-4.8c1.6,1.5,1.5,5.5-0.1,9.8
		c-0.5,1.1,1,1.5,6.8,1.7l7.3,0.3l-0.1,6c-0.1,9.7-0.7,14.5-1.8,16c-0.8,1.1-4.1,1.7-12.3,2.2C23.2,49,17.6,49.6,17,50
		c-0.7,0.4-0.9,1.6-0.5,2.9c0.5,1.8,1.2,2,4.5,1.5c3.1-0.5,4.5-0.2,6.6,1.5C30.9,58.5,31.1,58.5,34.4,55.9z M17,37
		c0-10.8-0.1-11-6.6-11c-2.5,0-3.8,0.6-5,2.6C3.8,31,3.8,31.2,6,34.2C7.7,36.6,8.1,38,7.6,41c-0.6,3.6-0.4,3.8,3.2,5.2
		C16.6,48.5,17,48,17,37z M34.4,45.4c3.9-0.6,4.4-0.9,3.4-2.1c-1-1.2-0.8-1.8,0.7-3c1.4-1.1,1.6-1.7,0.8-2c-1.8-0.6-1.6-3,0.2-3.7
		c0.8-0.3,1.5-1,1.5-1.6c0-0.5-0.7-1-1.5-1S38,31.3,38,30.5c0-0.8,0.7-1.5,1.5-1.5s1.5-0.7,1.5-1.5c0-1.2-1.6-1.5-8.5-1.5
		c-4.7,0-8.5-0.2-8.5-0.5c0-0.3,0.6-1.6,1.4-2.8c1.8-3,2.8-7.5,1.7-8.1c-0.4-0.3-2.2,2.5-4,6.3c-2.8,6-3.1,7.8-3.1,15.9V46h4.9
		C27.5,46,31.8,45.7,34.4,45.4z"/>
	<path class="st0" d="M48,31c0-0.5,0.9-1,2-1c1.1,0,2,0.5,2,1c0,0.6-0.9,1-2,1C48.9,32,48,31.6,48,31z"/>
	<path class="st0" d="M47,26.6c0-1.8,3.1-2.9,4.4-1.6c0.8,0.8,0.7,1.4-0.4,2C48.8,28.4,47,28.2,47,26.6z"/>
	<path class="st0" d="M45.2,21.8c0.3-0.7,1.5-1.5,2.7-1.6c1.6-0.3,2.2,0.1,1.9,1c-0.3,0.7-1.5,1.5-2.7,1.6
		C45.5,23.1,44.9,22.7,45.2,21.8z"/>
	<path class="st0" d="M42.4,18.9c-1-1.7,2.3-4.6,3.8-3.1c0.8,0.8,0.8,1.5-0.2,2.7C44.5,20.3,43.4,20.4,42.4,18.9z"/>
	<path class="st0" d="M39.2,14.9c0.1-1.2,0.9-2.4,1.6-2.7c0.9-0.3,1.3,0.3,1,1.9c-0.1,1.2-0.9,2.4-1.6,2.7
		C39.3,17.1,38.9,16.5,39.2,14.9z"/>
	<path class="st0" d="M34,13.8c0-0.7,0.5-2,1-2.8c1.2-2,3.3,0,2.4,2.3C36.7,15.3,34,15.6,34,13.8z"/>
</g>
</svg>
