<?xml version="1.0" encoding="utf-8"?>
<!-- Generator: Adobe Illustrator 22.1.0, SVG Export Plug-In . SVG Version: 6.00 Build 0)  -->
<svg version="1.1" id="Слой_1" xmlns="http://www.w3.org/2000/svg" xmlns:xlink="http://www.w3.org/1999/xlink" x="0px" y="0px"
	 viewBox="0 0 50 50" style="enable-background:new 0 0 50 50;" xml:space="preserve">
<style type="text/css">
	.st0{fill:#003399;stroke:#FFCC66;stroke-miterlimit:10;}
</style>
<g id="layer101">
	<path class="st0" d="M11.6,44.7c-1.1-0.8-1.7-2.3-1.4-3.8c0.2-1.4-0.5-3.3-1.5-4.4C6.3,33.9,5,30.6,5,27.1c0-1.6-0.7-3.4-1.6-4.1
		c-2.2-1.9-1.5-8.4,0.9-8.8c1.6-0.3,1.8,0.1,1.2,2.6c-0.7,3.4,1,5.3,2,2.2c1.1-3.5,8.9-7.3,15.5-7.4c3.7-0.1,6.5-0.8,7.7-1.8
		c2-1.7,5.8-3.8,6.9-3.8c0.3,0,0.4,1.7,0,3.8c-0.5,3.4-0.2,4.2,2.4,6.7c1.7,1.6,3,3.4,3,4.1c0,0.6,1.1,1.5,2.6,1.8
		c2.3,0.6,2.5,1,2.2,5.4c-0.2,3.9-0.7,4.8-2.4,5c-1.2,0.2-2.6,1.4-3.3,2.8c-0.6,1.3-1.8,2.7-2.6,3c-0.8,0.4-1.5,1.7-1.5,3
		c0,3.8-6.9,6.2-8.7,3c-0.4-0.7-2.7-1.5-5-1.7c-3.1-0.3-4.4,0-5.2,1.3C17.8,46.3,14.1,46.5,11.6,44.7z M16.9,41.1
		c0.9-1.7,1.9-1.8,7.3-1.3c3.9,0.3,6.7,1.1,7.4,2c1.3,1.8,3.4,0.8,3.4-1.8c0-1.9,7.3-10,9-10c0.6,0,1-1.1,1-2.5
		c0-1.7-0.5-2.5-1.8-2.5c-1.1,0-2.5-1.4-3.5-3.6c-1-2-2.7-3.8-3.7-4.1c-1.3-0.4-2-1.4-2-3c0-2.3-0.2-2.4-1.7-1.2
		c-0.9,0.8-4.1,1.4-7.7,1.5c-7.3,0.1-11.9,2.2-14.6,6.7c-3.1,5-2.4,9.2,2.3,14.4c1.1,1.3,1.7,2.9,1.3,3.8
		C12.3,42.9,15.2,44.3,16.9,41.1z"/>
	<path class="st0" d="M34,25.1c0-2.6,1.7-3.6,3.5-2.1s0.8,4-1.6,4C34.7,27,34,26.3,34,25.1z"/>
	<path class="st0" d="M10.7,11.8c-0.7-2.5,0.8-6.7,3.1-8.4c2.5-2,6.6-1.7,9.6,0.7c2.8,2.2,3.5,5.9,1.1,5.9C23.7,10,23,9.6,23,9.1
		C23,7.6,20,5,18.4,5c-2.3,0-5.6,3.9-4.9,5.9c0.3,1.1,0,2.1-0.9,2.4C11.7,13.7,11,13.1,10.7,11.8z"/>
</g>
</svg>
