<!DOCTYPE svg PUBLIC "-//W3C//DTD SVG 20010904//EN" "http://www.w3.org/TR/2001/REC-SVG-20010904/DTD/svg10.dtd">
<svg version="1.0" xmlns="http://www.w3.org/2000/svg" width="50px" height="50px" viewBox="0 0 500 500" preserveAspectRatio="xMidYMid meet">
<g id="layer101" fill="#000000" stroke="none">
 <path d="M215 464 c-12 -9 -30 -12 -47 -8 -24 5 -31 1 -45 -24 -9 -16 -29 -34 -45 -40 -21 -8 -28 -17 -28 -37 0 -14 -9 -39 -21 -54 -19 -26 -20 -31 -6 -57 10 -21 12 -36 5 -54 -8 -21 -5 -28 20 -50 17 -14 33 -37 36 -53 5 -22 12 -27 35 -27 15 0 35 -8 45 -19 24 -26 151 -27 169 0 7 9 26 19 42 21 24 2 32 10 39 35 6 17 21 37 34 44 19 11 23 19 18 43 -3 16 -1 44 6 62 10 29 9 36 -7 54 -12 14 -18 33 -17 51 3 25 -1 31 -30 44 -19 7 -40 25 -46 40 -10 23 -16 25 -45 20 -24 -5 -37 -2 -46 9 -17 20 -40 20 -66 0z m102 -41 c18 3 27 -2 38 -24 8 -15 25 -29 37 -31 19 -2 23 -9 21 -33 -1 -18 5 -38 17 -50 16 -17 17 -23 5 -39 -10 -13 -11 -25 -4 -44 8 -21 7 -29 -7 -39 -10 -7 -21 -13 -25 -13 -4 0 -9 -12 -11 -27 -2 -21 -9 -29 -28 -31 -14 -2 -35 -13 -47 -24 -17 -16 -25 -18 -41 -9 -15 8 -28 8 -47 -1 -22 -10 -28 -9 -41 10 -10 14 -26 22 -45 22 -23 0 -29 4 -29 20 0 12 -12 32 -26 45 -19 18 -24 30 -19 46 4 12 1 32 -6 45 -10 20 -10 27 4 42 10 10 17 31 17 46 0 19 7 29 25 36 14 5 30 20 36 33 8 18 17 22 43 19 21 -2 37 2 45 12 13 15 16 15 39 0 13 -9 35 -14 49 -11z"/>
 <path d="M211 283 c24 -43 52 -95 64 -115 19 -36 45 -51 45 -27 0 6 -26 57 -57 115 -41 72 -64 104 -76 104 -16 0 -12 -12 24 -77z"/>
 <path d="M272 348 c-17 -17 -15 -74 4 -92 35 -36 67 -8 62 56 -3 37 -6 43 -28 46 -14 2 -31 -3 -38 -10z m38 -43 c0 -14 -4 -25 -10 -25 -11 0 -14 33 -3 43 11 11 13 8 13 -18z"/>
 <path d="M161 231 c-16 -29 -13 -67 5 -85 19 -19 25 -20 48 -3 13 10 17 24 14 57 -3 40 -6 45 -30 48 -18 2 -30 -3 -37 -17z m39 -36 c0 -14 -4 -25 -10 -25 -11 0 -14 33 -3 43 11 11 13 8 13 -18z"/>
 </g>

</svg>