<?xml version="1.0" encoding="utf-8"?>
<!-- Generator: Adobe Illustrator 22.1.0, SVG Export Plug-In . SVG Version: 6.00 Build 0)  -->
<svg version="1.1" id="Capa_1" xmlns="http://www.w3.org/2000/svg" xmlns:xlink="http://www.w3.org/1999/xlink" x="0px" y="0px"
	 viewBox="0 0 538.3 538.3" style="enable-background:new 0 0 538.3 538.3;" xml:space="preserve">
<style type="text/css">
	.st0{fill:#6699CC;stroke:#FFCC66;stroke-miterlimit:10;}
</style>
<g>
	<path class="st0" d="M479.3,147.2h-84.4V29.9c0-16.4-13.4-29.9-29.8-29.9H47.2C30.8,0,17.3,13.5,17.3,29.9v478.5
		c0,16.4,13.4,29.9,29.8,29.9h284.3h0.4l0,0h29.4h3.8l0,0h114.2c23.1,0,41.6-18.9,41.6-41.6v-307
		C521.3,166.1,502.4,147.2,479.3,147.2z M386.9,172.4h37.4c4.6,0,8.4,3.8,8.4,8.4c0,4.6-3.8,8.4-8.4,8.4h-37.4
		c-4.6,0-8.4-3.8-8.4-8.4C378.5,176.2,382.3,172.4,386.9,172.4z M176.5,33.6h59.6c4.6,0,8.4,3.8,8.4,8.4s-3.8,8.4-8.4,8.4h-59.6
		c-4.6,0-8.4-3.8-8.4-8.4S171.9,33.6,176.5,33.6z M145.4,36.2c3.4-3.4,8.8-3.4,11.8,0c1.7,1.7,2.5,3.8,2.5,5.9
		c0,2.1-0.8,4.2-2.5,5.9c-1.3,1.7-3.4,2.5-5.9,2.5c-2.1,0-4.2-0.8-5.9-2.5c-1.7-1.7-2.5-3.8-2.5-5.9
		C142.9,39.9,144.2,37.8,145.4,36.2z M204.7,521.9c-13.9,0-25.2-11.4-25.2-25.2s11.3-25.2,25.2-25.2s25.2,11.4,25.2,25.2
		S218.5,521.9,204.7,521.9z M290.3,189.2v264.9H42.5V79.9h327.6v67.3h-38.2C309.2,147.2,290.3,166.1,290.3,189.2z M370.1,181.2
		c0,2.1-0.8,4.2-2.5,5.9c-1.7,1.7-3.8,2.5-5.9,2.5s-4.2-0.8-5.9-2.5c-1.7-1.7-2.5-3.8-2.5-5.9s0.8-4.2,2.5-5.9
		c2.9-3.4,8.8-3.4,11.8,0C369.3,177,370.1,179.1,370.1,181.2z M405.8,526.1c-13,0-23.5-10.5-23.5-23.5s10.5-23.5,23.5-23.5
		s23.5,10.5,23.5,23.5S418.9,526.1,405.8,526.1z M500.3,466.8h-189V214.5h189V466.8z"/>
</g>
</svg>
