<?xml version="1.0" encoding="utf-8"?>
<!-- Generator: Adobe Illustrator 22.1.0, SVG Export Plug-In . SVG Version: 6.00 Build 0)  -->
<svg version="1.1" id="Слой_1" xmlns="http://www.w3.org/2000/svg" xmlns:xlink="http://www.w3.org/1999/xlink" x="0px" y="0px"
	 viewBox="0 0 50 50" style="enable-background:new 0 0 50 50;" xml:space="preserve">
<style type="text/css">
	.st0{fill:#003399;stroke:#FFCC66;stroke-miterlimit:10;}
</style>
<g id="layer101">
	<path class="st0" d="M17.8,47c-4.4-1.3-8.6-4.8-11.3-9.5c-3.2-5.4-3.6-14.4-1-20c2.3-4.8,9-10.3,13.4-11.1c2-0.4,3-0.9,2.4-1.1
		C20.6,5,20,4.2,20,3.4c0-1,1.3-1.4,4.5-1.4S29,2.4,29,3.4c0,0.8-0.6,1.7-1.2,1.9c-0.7,0.3-0.2,0.6,1.2,0.6C30.4,6,33.3,7,35.5,8.3
		c11.4,6.5,14,22.4,5.2,32.4C35.2,47,26,49.5,17.8,47z M34.8,41.7c8.6-5.6,10.7-17.8,4.5-25.5c-4.1-5.1-8.5-7.4-14.1-7.5
		c-10-0.2-18.4,8.2-18.4,18.2C6.8,41.3,22.7,49.7,34.8,41.7z"/>
	<path class="st0" d="M19.8,24.4c-6.1-6.3-7.6-8.9-5.1-8.9c1.7,0,14.3,12.3,14.3,14C29,32.5,25.9,30.8,19.8,24.4z"/>
	<path class="st0" d="M39.1,9.7c-2-2.2-2-2.5-0.6-3.7c1.4-1.1,2-1,4.2,1.2c2.5,2.5,2.5,4.8-0.1,4.8C41.9,12,40.4,10.9,39.1,9.7z"/>
</g>
</svg>
