<?xml version="1.0" encoding="utf-8"?>
<!-- Generator: Adobe Illustrator 22.1.0, SVG Export Plug-In . SVG Version: 6.00 Build 0)  -->
<svg version="1.1" id="Слой_1" xmlns="http://www.w3.org/2000/svg" xmlns:xlink="http://www.w3.org/1999/xlink" x="0px" y="0px"
	 viewBox="0 0 50 50" style="enable-background:new 0 0 50 50;" xml:space="preserve">
<style type="text/css">
	.st0{fill:#003399;stroke:#FFCC66;stroke-miterlimit:10;}
</style>
<g id="layer101">
	<path class="st0" d="M5.4,44.6c-1.7-1.3-1.9-2.7-1.9-14.8c0-16.5,0.4-18,5.2-20.1c6.4-2.8,22.4-6.8,25.7-6.5
		c2.8,0.3,3.1,0.7,3.4,4.1c0.2,2.8,0,3.7-1.2,3.7c-1,0-1.6-0.9-1.6-2.5c0-3.2-1-3.2-13.5,0.5l-10,2.8l14.3,0.1
		c13.8,0.1,17.6,0.8,19.4,3.5c0.4,0.6,0.8,7,0.8,14.2c0,11.4-0.2,13.3-1.8,14.7c-1.6,1.5-4.5,1.7-19.3,1.7
		C11.3,46,6.9,45.7,5.4,44.6z M42.8,30c0.2-10.9,0-12.6-1.5-13.7c-1.2-0.9-6.2-1.3-16.9-1.3C5.5,15,6,14.6,6,29.3
		c0,14.6-1.2,13.8,19.3,13.5l17.2-0.3L42.8,30z"/>
	<path class="st0" d="M35.4,30.5c-0.4-0.9,0-2.3,0.9-3.2c2.1-2.1,4.9-0.9,4.5,1.9C40.4,32,36.3,33,35.4,30.5z"/>
</g>
</svg>
