<?xml version="1.0" encoding="utf-8"?>
<!-- Generator: Adobe Illustrator 22.1.0, SVG Export Plug-In . SVG Version: 6.00 Build 0)  -->
<svg version="1.1" id="Слой_1" xmlns="http://www.w3.org/2000/svg" xmlns:xlink="http://www.w3.org/1999/xlink" x="0px" y="0px"
	 viewBox="0 0 50 50" style="enable-background:new 0 0 50 50;" xml:space="preserve">
<style type="text/css">
	.st0{fill:#003399;stroke:#FFCC66;stroke-miterlimit:10;}
</style>
<g id="layer101">
	<path class="st0" d="M17.7,46.5C16.4,44.7,15,44,12.6,44c-1.8,0-3.5-0.3-3.8-0.6c-0.4-0.3,0.5-3.1,1.8-6.1c1.8-3.9,2.2-5.9,1.5-6.6
		c-0.6-0.6-1.1-1.8-1.1-2.6s-0.7-2.3-1.6-3.2c-2.3-2.5-2.3-12.8,0-14.4C10.3,9.8,11,8.6,11,7.8C11,5.9,13,4,15.1,4
		C16,4,17,3.3,17.4,2.5c0.8-2.1,12.8-2.1,14.6,0C32.7,3.3,34.1,4,35.2,4c1.2,0,2.4,1.2,3.3,3.4c0.8,1.9,1.9,3.7,2.4,4
		c1.5,1,1.1,12.4-0.5,13.7c-0.8,0.6-1.4,1.7-1.4,2.4c0,0.7-0.7,1.8-1.5,2.5c-1.2,1-1.1,1.8,1,6.1c3.5,6.7,3.3,7.9-1.1,7.9
		c-2.7,0-4.1,0.7-5.6,2.5c-2.6,3.3-4.1,3.1-5.6-0.7l-1.3-3.3l-1.4,3.3C21.8,49.6,20.1,49.8,17.7,46.5z M23.5,37.6
		c1.4-3.3,1.4-3.3-1.1-2.8c-1.5,0.3-3.2-0.2-4.3-1.2c-1.8-1.6-1.9-1.6-2.9,1.1c-0.5,1.5-1.3,3.6-1.7,4.6c-0.6,1.3-0.2,1.7,1.8,1.7
		c1.3,0,3,0.7,3.8,1.6C20.5,44.3,20.9,44,23.5,37.6z M34.8,41c1.2,0,2.2-0.2,2.2-0.5c0-0.5-2.9-6.6-3.5-7.3
		c-0.1-0.1-1.6,0.5-3.3,1.4c-3.4,1.6-4,4-2.1,7.5c1,1.9,1.2,1.9,2.8,0.5C31.9,41.7,33.6,41,34.8,41z M30.2,30.3
		c0.7-0.6,2.2-1.3,3.3-1.5c1.1-0.2,2.1-1.2,2.3-2.3c0.2-1.1,0.9-2.6,1.5-3.3c1.6-2.1,1.7-10,0.1-10.6C36.6,12.3,36,11.1,36,10
		c0-1.4-1-2.4-3-3.1c-1.6-0.6-3-1.5-3-2c0-1.6-9.6-1-11,0.6C18.3,6.3,16.9,7,15.9,7C14.8,7,14,7.7,14,8.7c0,0.9-0.8,2.5-1.7,3.5
		c-2,2.3-1.9,9.4,0.3,11.5c0.8,0.8,1.4,2.1,1.4,2.9s1.4,2,3,2.5c1.7,0.6,3,1.4,3,1.9C20,32.1,28.6,31.5,30.2,30.3z"/>
	<path class="st0" d="M19.6,23.6c-2.9-2.5-3.7-3.8-3.2-5.1c0.6-1.6,1-1.5,4,1.4l3.3,3.2l3.7-6.1c3.3-5.3,6.6-7.8,6.6-5
		c0,1.3-8.9,15-9.8,15C23.8,26.9,21.7,25.4,19.6,23.6z"/>
</g>
</svg>
