<?xml version="1.0" encoding="utf-8"?>
<!-- Generator: Adobe Illustrator 22.1.0, SVG Export Plug-In . SVG Version: 6.00 Build 0)  -->
<svg version="1.1" id="Слой_1" xmlns="http://www.w3.org/2000/svg" xmlns:xlink="http://www.w3.org/1999/xlink" x="0px" y="0px"
	 viewBox="0 0 50 50" style="enable-background:new 0 0 50 50;" xml:space="preserve">
<style type="text/css">
	.st0{fill:#6699CC;stroke:#6699CC;stroke-miterlimit:10;}
</style>
<g id="layer101">
	<path class="st0" d="M20.2,39.4c-3.8-4.4-4-5-2.6-6.6c2.2-2.4,6.8-3.2,10.8-1.8c6,1.9,6.1,3.1,0.7,8.4l-4.8,4.7L20.2,39.4z"/>
	<path class="st0" d="M10.5,29c-3.3-3.4-2.6-4.9,3.4-8c8.2-4.1,18.9-3.1,25.6,2.4l3,2.5L39.4,29l-3.1,3.1l-4.9-2.6
		c-5.5-2.9-9.8-2.8-14.5,0.6c-1.5,1-2.9,1.9-3.1,1.9S12.1,30.7,10.5,29z"/>
	<path class="st0" d="M2.6,21.1c-3.4-3.5-3.3-4.5,0.7-7.5C15.8,4,35.1,4.6,48,14.9l2.5,2l-3.3,3.3c-2.7,2.8-3.5,3.1-5,2
		c-9-6.5-15.5-8.1-23.5-5.8c-2.9,0.9-7.2,2.9-9.4,4.5l-4.1,2.9L2.6,21.1z"/>
</g>
</svg>
